<mxfile host="app.diagrams.net" modified="2021-11-12T11:39:07.093Z" agent="5.0 (Windows NT 10.0; Win64; x64) AppleWebKit/537.36 (KHTML, like Gecko) Chrome/95.0.4638.69 Safari/537.36" etag="KFVUgvc1mRtaCZILBUtV" version="15.7.3" type="github" pages="4">
  <diagram id="CcR6N29UdEEoXLSZjlMo" name="Page-1">
    <mxGraphModel dx="1422" dy="762" grid="1" gridSize="10" guides="1" tooltips="1" connect="1" arrows="1" fold="1" page="1" pageScale="1" pageWidth="827" pageHeight="1169" math="0" shadow="0">
      <root>
        <mxCell id="0" />
        <mxCell id="1" parent="0" />
        <mxCell id="7GQ-t7_XwerKmpIqAwyU-10" style="edgeStyle=orthogonalEdgeStyle;rounded=0;orthogonalLoop=1;jettySize=auto;html=1;exitX=0.5;exitY=0;exitDx=0;exitDy=0;entryX=0;entryY=0.5;entryDx=0;entryDy=0;fillColor=#ffe6cc;strokeColor=#d79b00;" edge="1" parent="1" source="7GQ-t7_XwerKmpIqAwyU-1" target="7GQ-t7_XwerKmpIqAwyU-2">
          <mxGeometry relative="1" as="geometry">
            <mxPoint x="170" y="230" as="targetPoint" />
            <Array as="points">
              <mxPoint x="170" y="370" />
            </Array>
          </mxGeometry>
        </mxCell>
        <mxCell id="7GQ-t7_XwerKmpIqAwyU-1" value="Client" style="rounded=1;whiteSpace=wrap;html=1;fillColor=#ffe6cc;strokeColor=#d79b00;" vertex="1" parent="1">
          <mxGeometry x="110" y="540" width="120" height="60" as="geometry" />
        </mxCell>
        <mxCell id="7GQ-t7_XwerKmpIqAwyU-12" style="edgeStyle=orthogonalEdgeStyle;rounded=0;orthogonalLoop=1;jettySize=auto;html=1;exitX=1;exitY=0.5;exitDx=0;exitDy=0;fillColor=#f8cecc;strokeColor=#b85450;" edge="1" parent="1" source="7GQ-t7_XwerKmpIqAwyU-2" target="7GQ-t7_XwerKmpIqAwyU-13">
          <mxGeometry relative="1" as="geometry">
            <mxPoint x="630" y="370" as="targetPoint" />
          </mxGeometry>
        </mxCell>
        <mxCell id="7GQ-t7_XwerKmpIqAwyU-14" style="edgeStyle=orthogonalEdgeStyle;rounded=0;orthogonalLoop=1;jettySize=auto;html=1;exitX=0.5;exitY=1;exitDx=0;exitDy=0;entryX=1;entryY=0.5;entryDx=0;entryDy=0;fillColor=#dae8fc;strokeColor=#6c8ebf;" edge="1" parent="1" source="7GQ-t7_XwerKmpIqAwyU-2" target="7GQ-t7_XwerKmpIqAwyU-1">
          <mxGeometry relative="1" as="geometry">
            <mxPoint x="390" y="620" as="targetPoint" />
            <Array as="points">
              <mxPoint x="390" y="570" />
            </Array>
          </mxGeometry>
        </mxCell>
        <mxCell id="7GQ-t7_XwerKmpIqAwyU-23" style="edgeStyle=orthogonalEdgeStyle;rounded=0;orthogonalLoop=1;jettySize=auto;html=1;exitX=0.75;exitY=0;exitDx=0;exitDy=0;fillColor=#dae8fc;strokeColor=#6c8ebf;" edge="1" parent="1" source="7GQ-t7_XwerKmpIqAwyU-2" target="7GQ-t7_XwerKmpIqAwyU-24">
          <mxGeometry relative="1" as="geometry">
            <mxPoint x="420" y="176" as="targetPoint" />
          </mxGeometry>
        </mxCell>
        <mxCell id="7GQ-t7_XwerKmpIqAwyU-2" value="StartVideoServer" style="rounded=1;whiteSpace=wrap;html=1;fillColor=#dae8fc;strokeColor=#6c8ebf;" vertex="1" parent="1">
          <mxGeometry x="330" y="340" width="120" height="60" as="geometry" />
        </mxCell>
        <mxCell id="7GQ-t7_XwerKmpIqAwyU-11" value="meetingId&lt;br&gt;eventId&lt;br&gt;branchName" style="text;html=1;align=center;verticalAlign=middle;resizable=0;points=[];autosize=1;strokeColor=#d79b00;fillColor=#ffe6cc;" vertex="1" parent="1">
          <mxGeometry x="170" y="370" width="80" height="50" as="geometry" />
        </mxCell>
        <mxCell id="7GQ-t7_XwerKmpIqAwyU-17" style="edgeStyle=orthogonalEdgeStyle;rounded=0;orthogonalLoop=1;jettySize=auto;html=1;exitX=0.5;exitY=1;exitDx=0;exitDy=0;fillColor=#f8cecc;strokeColor=#b85450;" edge="1" parent="1" source="7GQ-t7_XwerKmpIqAwyU-13" target="7GQ-t7_XwerKmpIqAwyU-18">
          <mxGeometry relative="1" as="geometry">
            <mxPoint x="790" y="370" as="targetPoint" />
            <Array as="points">
              <mxPoint x="630" y="430" />
              <mxPoint x="630" y="430" />
            </Array>
          </mxGeometry>
        </mxCell>
        <mxCell id="7GQ-t7_XwerKmpIqAwyU-13" value="ECS" style="rounded=1;whiteSpace=wrap;html=1;fillColor=#d5e8d4;strokeColor=#82b366;" vertex="1" parent="1">
          <mxGeometry x="570" y="340" width="120" height="60" as="geometry" />
        </mxCell>
        <mxCell id="7GQ-t7_XwerKmpIqAwyU-15" value="Task Created" style="text;html=1;align=center;verticalAlign=middle;resizable=0;points=[];autosize=1;strokeColor=#6c8ebf;fillColor=#dae8fc;" vertex="1" parent="1">
          <mxGeometry x="300" y="550" width="90" height="20" as="geometry" />
        </mxCell>
        <mxCell id="7GQ-t7_XwerKmpIqAwyU-16" value="Run Task" style="text;html=1;align=center;verticalAlign=middle;resizable=0;points=[];autosize=1;fillColor=#dae8fc;strokeColor=#6c8ebf;" vertex="1" parent="1">
          <mxGeometry x="465" y="370" width="70" height="20" as="geometry" />
        </mxCell>
        <mxCell id="7GQ-t7_XwerKmpIqAwyU-19" style="edgeStyle=orthogonalEdgeStyle;rounded=0;orthogonalLoop=1;jettySize=auto;html=1;exitX=0.5;exitY=1;exitDx=0;exitDy=0;fillColor=#f8cecc;strokeColor=#b85450;" edge="1" parent="1" source="7GQ-t7_XwerKmpIqAwyU-18" target="7GQ-t7_XwerKmpIqAwyU-20">
          <mxGeometry relative="1" as="geometry">
            <mxPoint x="630" y="660" as="targetPoint" />
          </mxGeometry>
        </mxCell>
        <mxCell id="7GQ-t7_XwerKmpIqAwyU-18" value="Golang Server" style="rounded=1;whiteSpace=wrap;html=1;fillColor=#fff2cc;strokeColor=#d6b656;" vertex="1" parent="1">
          <mxGeometry x="570" y="500" width="120" height="60" as="geometry" />
        </mxCell>
        <mxCell id="7GQ-t7_XwerKmpIqAwyU-21" style="edgeStyle=orthogonalEdgeStyle;rounded=0;orthogonalLoop=1;jettySize=auto;html=1;exitX=0;exitY=0.5;exitDx=0;exitDy=0;entryX=0.75;entryY=1;entryDx=0;entryDy=0;fillColor=#f8cecc;strokeColor=#b85450;" edge="1" parent="1" source="7GQ-t7_XwerKmpIqAwyU-20" target="7GQ-t7_XwerKmpIqAwyU-2">
          <mxGeometry relative="1" as="geometry" />
        </mxCell>
        <mxCell id="7GQ-t7_XwerKmpIqAwyU-20" value="Connects to WS" style="rounded=1;whiteSpace=wrap;html=1;fillColor=#fff2cc;strokeColor=#d6b656;" vertex="1" parent="1">
          <mxGeometry x="570" y="630" width="120" height="60" as="geometry" />
        </mxCell>
        <mxCell id="7GQ-t7_XwerKmpIqAwyU-22" value="Health Check" style="text;html=1;align=center;verticalAlign=middle;resizable=0;points=[];autosize=1;strokeColor=#d6b656;fillColor=#fff2cc;" vertex="1" parent="1">
          <mxGeometry x="420" y="640" width="90" height="20" as="geometry" />
        </mxCell>
        <mxCell id="7GQ-t7_XwerKmpIqAwyU-24" value="pixelmax_vc_cache" style="rounded=1;whiteSpace=wrap;html=1;fillColor=#f8cecc;strokeColor=#b85450;" vertex="1" parent="1">
          <mxGeometry x="360" y="160" width="120" height="60" as="geometry" />
        </mxCell>
        <mxCell id="7GQ-t7_XwerKmpIqAwyU-25" value="meetingId&lt;br&gt;eventId&lt;br&gt;branchName" style="text;html=1;align=center;verticalAlign=middle;resizable=0;points=[];autosize=1;strokeColor=#6c8ebf;fillColor=#dae8fc;" vertex="1" parent="1">
          <mxGeometry x="420" y="250" width="80" height="50" as="geometry" />
        </mxCell>
        <mxCell id="7GQ-t7_XwerKmpIqAwyU-27" style="edgeStyle=orthogonalEdgeStyle;rounded=0;orthogonalLoop=1;jettySize=auto;html=1;exitX=0.5;exitY=1;exitDx=0;exitDy=0;fillColor=#f8cecc;strokeColor=#b85450;" edge="1" parent="1">
          <mxGeometry relative="1" as="geometry">
            <mxPoint x="629.5" y="500" as="targetPoint" />
            <mxPoint x="629.5" y="400" as="sourcePoint" />
            <Array as="points">
              <mxPoint x="629.5" y="430" />
              <mxPoint x="629.5" y="430" />
            </Array>
          </mxGeometry>
        </mxCell>
        <mxCell id="7GQ-t7_XwerKmpIqAwyU-28" style="edgeStyle=orthogonalEdgeStyle;rounded=0;orthogonalLoop=1;jettySize=auto;html=1;exitX=0.5;exitY=1;exitDx=0;exitDy=0;fillColor=#f8cecc;strokeColor=#b85450;" edge="1" parent="1">
          <mxGeometry relative="1" as="geometry">
            <mxPoint x="629.5" y="630" as="targetPoint" />
            <mxPoint x="629.5" y="560" as="sourcePoint" />
          </mxGeometry>
        </mxCell>
        <mxCell id="7GQ-t7_XwerKmpIqAwyU-29" style="edgeStyle=orthogonalEdgeStyle;rounded=0;orthogonalLoop=1;jettySize=auto;html=1;exitX=0.5;exitY=1;exitDx=0;exitDy=0;fillColor=#d5e8d4;strokeColor=#82b366;" edge="1" parent="1">
          <mxGeometry relative="1" as="geometry">
            <mxPoint x="629.5" y="500" as="targetPoint" />
            <mxPoint x="629.5" y="400" as="sourcePoint" />
            <Array as="points">
              <mxPoint x="629.5" y="430" />
              <mxPoint x="629.5" y="430" />
            </Array>
          </mxGeometry>
        </mxCell>
        <mxCell id="7GQ-t7_XwerKmpIqAwyU-30" style="edgeStyle=orthogonalEdgeStyle;rounded=0;orthogonalLoop=1;jettySize=auto;html=1;exitX=0.5;exitY=1;exitDx=0;exitDy=0;fillColor=#fff2cc;strokeColor=#d6b656;strokeWidth=1;" edge="1" parent="1">
          <mxGeometry relative="1" as="geometry">
            <mxPoint x="629.5" y="630" as="targetPoint" />
            <mxPoint x="629.5" y="560" as="sourcePoint" />
          </mxGeometry>
        </mxCell>
        <mxCell id="7GQ-t7_XwerKmpIqAwyU-31" style="edgeStyle=orthogonalEdgeStyle;rounded=0;orthogonalLoop=1;jettySize=auto;html=1;exitX=0.5;exitY=1;exitDx=0;exitDy=0;entryX=1;entryY=0.5;entryDx=0;entryDy=0;fillColor=#dae8fc;strokeColor=#6c8ebf;" edge="1" parent="1">
          <mxGeometry relative="1" as="geometry">
            <mxPoint x="230" y="570" as="targetPoint" />
            <mxPoint x="390" y="400" as="sourcePoint" />
            <Array as="points">
              <mxPoint x="390" y="570" />
            </Array>
          </mxGeometry>
        </mxCell>
        <mxCell id="7GQ-t7_XwerKmpIqAwyU-32" style="edgeStyle=orthogonalEdgeStyle;rounded=0;orthogonalLoop=1;jettySize=auto;html=1;exitX=0;exitY=0.5;exitDx=0;exitDy=0;entryX=0.75;entryY=1;entryDx=0;entryDy=0;fillColor=#fff2cc;strokeColor=#d6b656;" edge="1" parent="1">
          <mxGeometry relative="1" as="geometry">
            <mxPoint x="570" y="660" as="sourcePoint" />
            <mxPoint x="420" y="400" as="targetPoint" />
          </mxGeometry>
        </mxCell>
        <mxCell id="7GQ-t7_XwerKmpIqAwyU-33" style="edgeStyle=orthogonalEdgeStyle;rounded=0;orthogonalLoop=1;jettySize=auto;html=1;exitX=1;exitY=0.5;exitDx=0;exitDy=0;fillColor=#dae8fc;strokeColor=#6c8ebf;" edge="1" parent="1">
          <mxGeometry relative="1" as="geometry">
            <mxPoint x="570" y="370" as="targetPoint" />
            <mxPoint x="450" y="370" as="sourcePoint" />
          </mxGeometry>
        </mxCell>
        <mxCell id="AX83nVNepoI9I2ibDQi--1" value="1" style="text;html=1;align=center;verticalAlign=middle;resizable=0;points=[];autosize=1;strokeColor=none;fillColor=none;" vertex="1" parent="1">
          <mxGeometry x="150" y="350" width="20" height="20" as="geometry" />
        </mxCell>
        <mxCell id="AX83nVNepoI9I2ibDQi--2" value="2" style="text;html=1;align=center;verticalAlign=middle;resizable=0;points=[];autosize=1;strokeColor=none;fillColor=none;" vertex="1" parent="1">
          <mxGeometry x="500" y="350" width="20" height="20" as="geometry" />
        </mxCell>
        <mxCell id="AX83nVNepoI9I2ibDQi--3" value="3" style="text;html=1;align=center;verticalAlign=middle;resizable=0;points=[];autosize=1;strokeColor=none;fillColor=none;" vertex="1" parent="1">
          <mxGeometry x="630" y="440" width="20" height="20" as="geometry" />
        </mxCell>
        <mxCell id="AX83nVNepoI9I2ibDQi--4" value="4" style="text;html=1;align=center;verticalAlign=middle;resizable=0;points=[];autosize=1;strokeColor=none;fillColor=none;" vertex="1" parent="1">
          <mxGeometry x="630" y="580" width="20" height="20" as="geometry" />
        </mxCell>
        <mxCell id="AX83nVNepoI9I2ibDQi--6" value="5" style="text;html=1;align=center;verticalAlign=middle;resizable=0;points=[];autosize=1;strokeColor=none;fillColor=none;" vertex="1" parent="1">
          <mxGeometry x="430" y="660" width="20" height="20" as="geometry" />
        </mxCell>
        <mxCell id="AX83nVNepoI9I2ibDQi--7" value="6" style="text;html=1;align=center;verticalAlign=middle;resizable=0;points=[];autosize=1;strokeColor=none;fillColor=none;" vertex="1" parent="1">
          <mxGeometry x="400" y="260" width="20" height="20" as="geometry" />
        </mxCell>
        <mxCell id="AX83nVNepoI9I2ibDQi--8" value="2" style="text;html=1;align=center;verticalAlign=middle;resizable=0;points=[];autosize=1;strokeColor=none;fillColor=none;" vertex="1" parent="1">
          <mxGeometry x="370" y="470" width="20" height="20" as="geometry" />
        </mxCell>
        <mxCell id="AX83nVNepoI9I2ibDQi--9" value="Key:&lt;br&gt;Red: DynamoDB&lt;br&gt;Blue: Lambda&lt;br&gt;Orange: VC User&lt;br&gt;Green: ECS&lt;br&gt;Yellow: Golang" style="text;html=1;align=center;verticalAlign=middle;resizable=0;points=[];autosize=1;strokeColor=none;fillColor=none;" vertex="1" parent="1">
          <mxGeometry x="190" y="205" width="110" height="90" as="geometry" />
        </mxCell>
      </root>
    </mxGraphModel>
  </diagram>
  <diagram id="2hfShy1cAwjVMiIyhE1W" name="Page-2">
    <mxGraphModel dx="1422" dy="762" grid="1" gridSize="10" guides="1" tooltips="1" connect="1" arrows="1" fold="1" page="1" pageScale="1" pageWidth="827" pageHeight="1169" math="0" shadow="0">
      <root>
        <mxCell id="mub9obIOEL7mXfpV2qEF-0" />
        <mxCell id="mub9obIOEL7mXfpV2qEF-1" parent="mub9obIOEL7mXfpV2qEF-0" />
        <mxCell id="bgabw0qtIcl7RQXF-LrN-0" style="edgeStyle=orthogonalEdgeStyle;rounded=0;orthogonalLoop=1;jettySize=auto;html=1;exitX=0.5;exitY=0;exitDx=0;exitDy=0;entryX=0;entryY=0.5;entryDx=0;entryDy=0;fillColor=#ffe6cc;strokeColor=#d79b00;" edge="1" source="bgabw0qtIcl7RQXF-LrN-1" target="bgabw0qtIcl7RQXF-LrN-5" parent="mub9obIOEL7mXfpV2qEF-1">
          <mxGeometry relative="1" as="geometry">
            <mxPoint x="230" y="230" as="targetPoint" />
            <Array as="points">
              <mxPoint x="230" y="370" />
            </Array>
          </mxGeometry>
        </mxCell>
        <mxCell id="YyG1jd_qIuT5HMvseiWp-0" style="edgeStyle=orthogonalEdgeStyle;rounded=0;orthogonalLoop=1;jettySize=auto;html=1;exitX=0.5;exitY=1;exitDx=0;exitDy=0;strokeColor=#d79b00;strokeWidth=1;fillColor=#ffe6cc;" edge="1" parent="mub9obIOEL7mXfpV2qEF-1" source="bgabw0qtIcl7RQXF-LrN-1" target="YyG1jd_qIuT5HMvseiWp-1">
          <mxGeometry relative="1" as="geometry">
            <mxPoint x="230" y="680" as="targetPoint" />
          </mxGeometry>
        </mxCell>
        <mxCell id="bgabw0qtIcl7RQXF-LrN-1" value="Client" style="rounded=1;whiteSpace=wrap;html=1;fillColor=#ffe6cc;strokeColor=#d79b00;" vertex="1" parent="mub9obIOEL7mXfpV2qEF-1">
          <mxGeometry x="170" y="540" width="120" height="60" as="geometry" />
        </mxCell>
        <mxCell id="bgabw0qtIcl7RQXF-LrN-3" style="edgeStyle=orthogonalEdgeStyle;rounded=0;orthogonalLoop=1;jettySize=auto;html=1;exitX=0.5;exitY=1;exitDx=0;exitDy=0;entryX=1;entryY=0.5;entryDx=0;entryDy=0;fillColor=#dae8fc;strokeColor=#6c8ebf;" edge="1" source="bgabw0qtIcl7RQXF-LrN-5" target="bgabw0qtIcl7RQXF-LrN-1" parent="mub9obIOEL7mXfpV2qEF-1">
          <mxGeometry relative="1" as="geometry">
            <mxPoint x="450" y="620" as="targetPoint" />
            <Array as="points">
              <mxPoint x="450" y="570" />
            </Array>
          </mxGeometry>
        </mxCell>
        <mxCell id="bgabw0qtIcl7RQXF-LrN-4" style="edgeStyle=orthogonalEdgeStyle;rounded=0;orthogonalLoop=1;jettySize=auto;html=1;exitX=0.75;exitY=0;exitDx=0;exitDy=0;fillColor=#dae8fc;strokeColor=#6c8ebf;" edge="1" source="bgabw0qtIcl7RQXF-LrN-5" target="bgabw0qtIcl7RQXF-LrN-16" parent="mub9obIOEL7mXfpV2qEF-1">
          <mxGeometry relative="1" as="geometry">
            <mxPoint x="480" y="176" as="targetPoint" />
            <Array as="points">
              <mxPoint x="410" y="340" />
            </Array>
          </mxGeometry>
        </mxCell>
        <mxCell id="bgabw0qtIcl7RQXF-LrN-5" value="StartVideoServer" style="rounded=1;whiteSpace=wrap;html=1;fillColor=#dae8fc;strokeColor=#6c8ebf;" vertex="1" parent="mub9obIOEL7mXfpV2qEF-1">
          <mxGeometry x="390" y="340" width="120" height="60" as="geometry" />
        </mxCell>
        <mxCell id="bgabw0qtIcl7RQXF-LrN-6" value="meetingId&lt;br&gt;eventId&lt;br&gt;branchName" style="text;html=1;align=center;verticalAlign=middle;resizable=0;points=[];autosize=1;strokeColor=#d79b00;fillColor=#ffe6cc;" vertex="1" parent="mub9obIOEL7mXfpV2qEF-1">
          <mxGeometry x="230" y="370" width="80" height="50" as="geometry" />
        </mxCell>
        <mxCell id="bgabw0qtIcl7RQXF-LrN-9" value="Server Running" style="text;html=1;align=center;verticalAlign=middle;resizable=0;points=[];autosize=1;strokeColor=#6c8ebf;fillColor=#dae8fc;" vertex="1" parent="mub9obIOEL7mXfpV2qEF-1">
          <mxGeometry x="350" y="550" width="100" height="20" as="geometry" />
        </mxCell>
        <mxCell id="bgabw0qtIcl7RQXF-LrN-12" value="Golang Server" style="rounded=1;whiteSpace=wrap;html=1;fillColor=#fff2cc;strokeColor=#d6b656;" vertex="1" parent="mub9obIOEL7mXfpV2qEF-1">
          <mxGeometry x="560" y="540" width="120" height="60" as="geometry" />
        </mxCell>
        <mxCell id="bgabw0qtIcl7RQXF-LrN-25" style="edgeStyle=orthogonalEdgeStyle;rounded=0;orthogonalLoop=1;jettySize=auto;html=1;exitX=0.25;exitY=1;exitDx=0;exitDy=0;strokeColor=#b85450;strokeWidth=1;fillColor=#f8cecc;" edge="1" parent="mub9obIOEL7mXfpV2qEF-1" source="bgabw0qtIcl7RQXF-LrN-16">
          <mxGeometry relative="1" as="geometry">
            <mxPoint x="480" y="340" as="targetPoint" />
            <Array as="points">
              <mxPoint x="480" y="210" />
              <mxPoint x="480" y="340" />
            </Array>
          </mxGeometry>
        </mxCell>
        <mxCell id="bgabw0qtIcl7RQXF-LrN-16" value="pixelmax_vc_cache" style="rounded=1;whiteSpace=wrap;html=1;fillColor=#f8cecc;strokeColor=#b85450;" vertex="1" parent="mub9obIOEL7mXfpV2qEF-1">
          <mxGeometry x="390" y="150" width="120" height="60" as="geometry" />
        </mxCell>
        <mxCell id="bgabw0qtIcl7RQXF-LrN-17" value="meetingId&lt;br&gt;eventId&lt;br&gt;branchName" style="text;html=1;align=center;verticalAlign=middle;resizable=0;points=[];autosize=1;strokeColor=#6c8ebf;fillColor=#dae8fc;" vertex="1" parent="mub9obIOEL7mXfpV2qEF-1">
          <mxGeometry x="330" y="250" width="80" height="50" as="geometry" />
        </mxCell>
        <mxCell id="bgabw0qtIcl7RQXF-LrN-22" style="edgeStyle=orthogonalEdgeStyle;rounded=0;orthogonalLoop=1;jettySize=auto;html=1;exitX=0.5;exitY=1;exitDx=0;exitDy=0;entryX=1;entryY=0.5;entryDx=0;entryDy=0;fillColor=#dae8fc;strokeColor=#6c8ebf;" edge="1" parent="mub9obIOEL7mXfpV2qEF-1">
          <mxGeometry relative="1" as="geometry">
            <mxPoint x="290" y="570" as="targetPoint" />
            <mxPoint x="450" y="400" as="sourcePoint" />
            <Array as="points">
              <mxPoint x="450" y="570" />
            </Array>
          </mxGeometry>
        </mxCell>
        <mxCell id="YyG1jd_qIuT5HMvseiWp-1" value="Starts Connection" style="rounded=1;whiteSpace=wrap;html=1;fillColor=#ffe6cc;strokeColor=#d79b00;" vertex="1" parent="mub9obIOEL7mXfpV2qEF-1">
          <mxGeometry x="170" y="650" width="120" height="60" as="geometry" />
        </mxCell>
        <mxCell id="2ZI_AOiBEj5UlnwdxK9J-0" value="Key:&lt;br&gt;Red: DynamoDB&lt;br&gt;Blue: Lambda&lt;br&gt;Orange: VC User&lt;br&gt;Yellow: Golang" style="text;html=1;align=center;verticalAlign=middle;resizable=0;points=[];autosize=1;strokeColor=none;fillColor=none;" vertex="1" parent="mub9obIOEL7mXfpV2qEF-1">
          <mxGeometry x="180" y="180" width="110" height="80" as="geometry" />
        </mxCell>
      </root>
    </mxGraphModel>
  </diagram>
  <diagram id="9joBS6wu9YBKVJp6bgiP" name="Page-3">
    <mxGraphModel dx="1422" dy="762" grid="1" gridSize="10" guides="1" tooltips="1" connect="1" arrows="1" fold="1" page="1" pageScale="1" pageWidth="827" pageHeight="1169" math="0" shadow="0">
      <root>
        <mxCell id="mu_mSW4aEv6Hn_2FSIKY-0" />
        <mxCell id="mu_mSW4aEv6Hn_2FSIKY-1" parent="mu_mSW4aEv6Hn_2FSIKY-0" />
        <mxCell id="61UzVWCQumK5D0Po66xy-2" style="edgeStyle=orthogonalEdgeStyle;rounded=0;orthogonalLoop=1;jettySize=auto;html=1;exitX=1;exitY=0.5;exitDx=0;exitDy=0;entryX=0;entryY=0.5;entryDx=0;entryDy=0;strokeColor=#d6b656;strokeWidth=1;fillColor=#fff2cc;" edge="1" parent="mu_mSW4aEv6Hn_2FSIKY-1" source="dsHtleNIHPNbanyPG0Eb-0" target="61UzVWCQumK5D0Po66xy-1">
          <mxGeometry relative="1" as="geometry" />
        </mxCell>
        <mxCell id="dsHtleNIHPNbanyPG0Eb-0" value="Client" style="rounded=1;whiteSpace=wrap;html=1;fillColor=#ffe6cc;strokeColor=#d79b00;" vertex="1" parent="mu_mSW4aEv6Hn_2FSIKY-1">
          <mxGeometry x="30" y="80" width="120" height="60" as="geometry" />
        </mxCell>
        <mxCell id="61UzVWCQumK5D0Po66xy-3" style="edgeStyle=orthogonalEdgeStyle;rounded=0;orthogonalLoop=1;jettySize=auto;html=1;exitX=0;exitY=0.5;exitDx=0;exitDy=0;entryX=1;entryY=0.5;entryDx=0;entryDy=0;strokeColor=#d6b656;strokeWidth=1;fillColor=#fff2cc;" edge="1" parent="mu_mSW4aEv6Hn_2FSIKY-1" source="61UzVWCQumK5D0Po66xy-0" target="61UzVWCQumK5D0Po66xy-1">
          <mxGeometry relative="1" as="geometry" />
        </mxCell>
        <mxCell id="61UzVWCQumK5D0Po66xy-0" value="Golang Server" style="rounded=1;whiteSpace=wrap;html=1;fillColor=#fff2cc;strokeColor=#d6b656;" vertex="1" parent="mu_mSW4aEv6Hn_2FSIKY-1">
          <mxGeometry x="640" y="80" width="120" height="60" as="geometry" />
        </mxCell>
        <mxCell id="61UzVWCQumK5D0Po66xy-4" style="edgeStyle=orthogonalEdgeStyle;rounded=0;orthogonalLoop=1;jettySize=auto;html=1;exitX=0.5;exitY=1;exitDx=0;exitDy=0;strokeColor=#6c8ebf;strokeWidth=1;fillColor=#dae8fc;" edge="1" parent="mu_mSW4aEv6Hn_2FSIKY-1" source="61UzVWCQumK5D0Po66xy-1" target="61UzVWCQumK5D0Po66xy-9">
          <mxGeometry relative="1" as="geometry">
            <mxPoint x="370" y="290" as="targetPoint" />
          </mxGeometry>
        </mxCell>
        <mxCell id="61UzVWCQumK5D0Po66xy-5" style="edgeStyle=orthogonalEdgeStyle;rounded=0;orthogonalLoop=1;jettySize=auto;html=1;exitX=0.75;exitY=1;exitDx=0;exitDy=0;strokeColor=#6c8ebf;strokeWidth=1;fillColor=#dae8fc;" edge="1" parent="mu_mSW4aEv6Hn_2FSIKY-1" source="61UzVWCQumK5D0Po66xy-1" target="61UzVWCQumK5D0Po66xy-6">
          <mxGeometry relative="1" as="geometry">
            <mxPoint x="550" y="340" as="targetPoint" />
          </mxGeometry>
        </mxCell>
        <mxCell id="61UzVWCQumK5D0Po66xy-7" style="edgeStyle=orthogonalEdgeStyle;rounded=0;orthogonalLoop=1;jettySize=auto;html=1;exitX=0.25;exitY=1;exitDx=0;exitDy=0;strokeColor=#6c8ebf;strokeWidth=1;fillColor=#dae8fc;" edge="1" parent="mu_mSW4aEv6Hn_2FSIKY-1" source="61UzVWCQumK5D0Po66xy-1" target="61UzVWCQumK5D0Po66xy-8">
          <mxGeometry relative="1" as="geometry">
            <mxPoint x="220" y="290" as="targetPoint" />
          </mxGeometry>
        </mxCell>
        <mxCell id="61UzVWCQumK5D0Po66xy-1" value="VC-WS connect" style="rounded=1;whiteSpace=wrap;html=1;fillColor=#dae8fc;strokeColor=#6c8ebf;" vertex="1" parent="mu_mSW4aEv6Hn_2FSIKY-1">
          <mxGeometry x="310" y="80" width="120" height="60" as="geometry" />
        </mxCell>
        <mxCell id="61UzVWCQumK5D0Po66xy-6" value="pixelmax_vc_servers" style="rounded=1;whiteSpace=wrap;html=1;fillColor=#f8cecc;strokeColor=#b85450;" vertex="1" parent="mu_mSW4aEv6Hn_2FSIKY-1">
          <mxGeometry x="540" y="260" width="120" height="60" as="geometry" />
        </mxCell>
        <mxCell id="61UzVWCQumK5D0Po66xy-8" value="pixelmax_vc_users" style="rounded=1;whiteSpace=wrap;html=1;fillColor=#f8cecc;strokeColor=#b85450;" vertex="1" parent="mu_mSW4aEv6Hn_2FSIKY-1">
          <mxGeometry x="80" y="260" width="120" height="60" as="geometry" />
        </mxCell>
        <mxCell id="61UzVWCQumK5D0Po66xy-9" value="pixelmax_vc_connections" style="rounded=1;whiteSpace=wrap;html=1;fillColor=#f8cecc;strokeColor=#b85450;" vertex="1" parent="mu_mSW4aEv6Hn_2FSIKY-1">
          <mxGeometry x="295" y="260" width="150" height="60" as="geometry" />
        </mxCell>
        <mxCell id="ISeVvlqS8pYNL33z2Fg7-0" value="Key:&lt;br&gt;Red: DynamoDB&lt;br&gt;Blue: WS Lambda&lt;br&gt;Orange: VC User&lt;br&gt;Yellow: Golang" style="text;html=1;align=center;verticalAlign=middle;resizable=0;points=[];autosize=1;strokeColor=none;fillColor=none;" vertex="1" parent="mu_mSW4aEv6Hn_2FSIKY-1">
          <mxGeometry x="480" y="10" width="110" height="80" as="geometry" />
        </mxCell>
      </root>
    </mxGraphModel>
  </diagram>
  <diagram id="fE0nu0C_tP-T0_imHm8y" name="Page-4">
    <mxGraphModel dx="1422" dy="762" grid="1" gridSize="10" guides="1" tooltips="1" connect="1" arrows="1" fold="1" page="1" pageScale="1" pageWidth="827" pageHeight="1169" math="0" shadow="0">
      <root>
        <mxCell id="lhv6l2ten8mz7chehLjF-0" />
        <mxCell id="lhv6l2ten8mz7chehLjF-1" parent="lhv6l2ten8mz7chehLjF-0" />
        <mxCell id="uvVpvwve04PsAVn_pGUk-0" style="edgeStyle=orthogonalEdgeStyle;rounded=0;orthogonalLoop=1;jettySize=auto;html=1;exitX=1;exitY=0.5;exitDx=0;exitDy=0;entryX=0;entryY=0.5;entryDx=0;entryDy=0;strokeColor=#d6b656;strokeWidth=1;fillColor=#fff2cc;" edge="1" source="uvVpvwve04PsAVn_pGUk-1" target="uvVpvwve04PsAVn_pGUk-4" parent="lhv6l2ten8mz7chehLjF-1">
          <mxGeometry relative="1" as="geometry" />
        </mxCell>
        <mxCell id="uvVpvwve04PsAVn_pGUk-1" value="Client" style="rounded=1;whiteSpace=wrap;html=1;fillColor=#ffe6cc;strokeColor=#d79b00;" vertex="1" parent="lhv6l2ten8mz7chehLjF-1">
          <mxGeometry x="40" y="110" width="120" height="60" as="geometry" />
        </mxCell>
        <mxCell id="uvVpvwve04PsAVn_pGUk-6" style="edgeStyle=orthogonalEdgeStyle;rounded=0;orthogonalLoop=1;jettySize=auto;html=1;exitX=0;exitY=0.5;exitDx=0;exitDy=0;strokeColor=#b85450;strokeWidth=1;startArrow=none;fillColor=#f8cecc;entryX=0.564;entryY=-0.017;entryDx=0;entryDy=0;entryPerimeter=0;" edge="1" parent="lhv6l2ten8mz7chehLjF-1" source="uvVpvwve04PsAVn_pGUk-10" target="uvVpvwve04PsAVn_pGUk-7">
          <mxGeometry relative="1" as="geometry">
            <mxPoint x="270" y="285" as="targetPoint" />
            <Array as="points">
              <mxPoint x="110" y="225" />
            </Array>
          </mxGeometry>
        </mxCell>
        <mxCell id="uvVpvwve04PsAVn_pGUk-3" value="Golang Server" style="rounded=1;whiteSpace=wrap;html=1;fillColor=#fff2cc;strokeColor=#d6b656;" vertex="1" parent="lhv6l2ten8mz7chehLjF-1">
          <mxGeometry x="680" y="110" width="120" height="60" as="geometry" />
        </mxCell>
        <mxCell id="_uHZms1sCD0BSmbMc2NP-0" style="edgeStyle=orthogonalEdgeStyle;rounded=0;orthogonalLoop=1;jettySize=auto;html=1;exitX=1;exitY=0.5;exitDx=0;exitDy=0;entryX=0;entryY=0.5;entryDx=0;entryDy=0;strokeColor=#6c8ebf;strokeWidth=1;fillColor=#dae8fc;" edge="1" parent="lhv6l2ten8mz7chehLjF-1" source="uvVpvwve04PsAVn_pGUk-4" target="uvVpvwve04PsAVn_pGUk-3">
          <mxGeometry relative="1" as="geometry" />
        </mxCell>
        <mxCell id="uvVpvwve04PsAVn_pGUk-4" value="VC-WS connect" style="rounded=1;whiteSpace=wrap;html=1;fillColor=#dae8fc;strokeColor=#6c8ebf;" vertex="1" parent="lhv6l2ten8mz7chehLjF-1">
          <mxGeometry x="330" y="110" width="120" height="60" as="geometry" />
        </mxCell>
        <mxCell id="_uHZms1sCD0BSmbMc2NP-2" style="edgeStyle=orthogonalEdgeStyle;rounded=0;orthogonalLoop=1;jettySize=auto;html=1;exitX=0.5;exitY=1;exitDx=0;exitDy=0;strokeColor=#b85450;strokeWidth=1;entryX=0;entryY=0.5;entryDx=0;entryDy=0;fillColor=#f8cecc;startArrow=none;" edge="1" parent="lhv6l2ten8mz7chehLjF-1" source="_uHZms1sCD0BSmbMc2NP-4" target="_uHZms1sCD0BSmbMc2NP-3">
          <mxGeometry relative="1" as="geometry">
            <mxPoint x="680" y="520" as="targetPoint" />
            <Array as="points">
              <mxPoint x="365" y="465" />
            </Array>
          </mxGeometry>
        </mxCell>
        <mxCell id="_uHZms1sCD0BSmbMc2NP-9" style="edgeStyle=orthogonalEdgeStyle;rounded=0;orthogonalLoop=1;jettySize=auto;html=1;exitX=0.25;exitY=1;exitDx=0;exitDy=0;entryX=-0.008;entryY=0.857;entryDx=0;entryDy=0;entryPerimeter=0;strokeColor=#b85450;strokeWidth=1;fillColor=#f8cecc;" edge="1" parent="lhv6l2ten8mz7chehLjF-1" source="uvVpvwve04PsAVn_pGUk-7" target="_uHZms1sCD0BSmbMc2NP-3">
          <mxGeometry relative="1" as="geometry" />
        </mxCell>
        <mxCell id="uvVpvwve04PsAVn_pGUk-7" value="Set remote description&lt;br&gt;Create answer&lt;br&gt;Set local description&lt;br&gt;Add ICE candidates" style="rounded=1;whiteSpace=wrap;html=1;fillColor=#ffe6cc;strokeColor=#d79b00;" vertex="1" parent="lhv6l2ten8mz7chehLjF-1">
          <mxGeometry x="30" y="255" width="140" height="60" as="geometry" />
        </mxCell>
        <mxCell id="_uHZms1sCD0BSmbMc2NP-6" style="edgeStyle=orthogonalEdgeStyle;rounded=0;orthogonalLoop=1;jettySize=auto;html=1;exitX=0;exitY=0.75;exitDx=0;exitDy=0;strokeColor=#b85450;strokeWidth=1;entryX=1;entryY=0.5;entryDx=0;entryDy=0;fillColor=#f8cecc;" edge="1" parent="lhv6l2ten8mz7chehLjF-1" source="uvVpvwve04PsAVn_pGUk-8" target="uvVpvwve04PsAVn_pGUk-7">
          <mxGeometry relative="1" as="geometry">
            <mxPoint x="140" y="328" as="targetPoint" />
            <Array as="points">
              <mxPoint x="680" y="250" />
              <mxPoint x="260" y="250" />
              <mxPoint x="260" y="285" />
            </Array>
          </mxGeometry>
        </mxCell>
        <mxCell id="uvVpvwve04PsAVn_pGUk-8" value="Create RTCPeerConnection&lt;br&gt;&lt;br&gt;Store clients information&lt;br&gt;&lt;br&gt;Sets up event listeners&lt;br&gt;&lt;br&gt;Create offer&lt;br&gt;Set local description" style="rounded=1;whiteSpace=wrap;html=1;fillColor=#fff2cc;strokeColor=#d6b656;" vertex="1" parent="lhv6l2ten8mz7chehLjF-1">
          <mxGeometry x="680" y="200" width="120" height="170" as="geometry" />
        </mxCell>
        <mxCell id="uvVpvwve04PsAVn_pGUk-9" value="" style="edgeStyle=orthogonalEdgeStyle;rounded=0;orthogonalLoop=1;jettySize=auto;html=1;exitX=0.5;exitY=1;exitDx=0;exitDy=0;strokeColor=#d6b656;strokeWidth=1;entryX=0.5;entryY=0;entryDx=0;entryDy=0;endArrow=none;fillColor=#fff2cc;" edge="1" parent="lhv6l2ten8mz7chehLjF-1" source="uvVpvwve04PsAVn_pGUk-3" target="uvVpvwve04PsAVn_pGUk-8">
          <mxGeometry relative="1" as="geometry">
            <mxPoint x="160" y="380" as="targetPoint" />
            <mxPoint x="740" y="170" as="sourcePoint" />
          </mxGeometry>
        </mxCell>
        <mxCell id="_uHZms1sCD0BSmbMc2NP-1" value="Client connected" style="text;html=1;align=center;verticalAlign=middle;resizable=0;points=[];autosize=1;strokeColor=#6c8ebf;fillColor=#dae8fc;" vertex="1" parent="lhv6l2ten8mz7chehLjF-1">
          <mxGeometry x="520" y="120" width="100" height="20" as="geometry" />
        </mxCell>
        <mxCell id="_uHZms1sCD0BSmbMc2NP-3" value="Set remote description&lt;br&gt;&lt;br&gt;Add ICE candidates" style="rounded=1;whiteSpace=wrap;html=1;fillColor=#fff2cc;strokeColor=#d6b656;" vertex="1" parent="lhv6l2ten8mz7chehLjF-1">
          <mxGeometry x="680" y="430" width="120" height="70" as="geometry" />
        </mxCell>
        <mxCell id="uvVpvwve04PsAVn_pGUk-10" value="OFFER" style="text;html=1;align=center;verticalAlign=middle;resizable=0;points=[];autosize=1;strokeColor=#b85450;fillColor=#f8cecc;" vertex="1" parent="lhv6l2ten8mz7chehLjF-1">
          <mxGeometry x="550" y="215" width="60" height="20" as="geometry" />
        </mxCell>
        <mxCell id="_uHZms1sCD0BSmbMc2NP-5" value="" style="edgeStyle=orthogonalEdgeStyle;rounded=0;orthogonalLoop=1;jettySize=auto;html=1;strokeColor=#b85450;strokeWidth=1;entryX=1;entryY=0.5;entryDx=0;entryDy=0;startArrow=none;fillColor=#f8cecc;endArrow=none;" edge="1" parent="lhv6l2ten8mz7chehLjF-1" target="uvVpvwve04PsAVn_pGUk-10">
          <mxGeometry relative="1" as="geometry">
            <mxPoint x="170" y="285" as="targetPoint" />
            <mxPoint x="680" y="225" as="sourcePoint" />
            <Array as="points">
              <mxPoint x="680" y="225" />
            </Array>
          </mxGeometry>
        </mxCell>
        <mxCell id="_uHZms1sCD0BSmbMc2NP-7" value="ICE CANDIDATES" style="text;html=1;align=center;verticalAlign=middle;resizable=0;points=[];autosize=1;strokeColor=#b85450;fillColor=#f8cecc;" vertex="1" parent="lhv6l2ten8mz7chehLjF-1">
          <mxGeometry x="490" y="250" width="120" height="20" as="geometry" />
        </mxCell>
        <mxCell id="_uHZms1sCD0BSmbMc2NP-4" value="ANSWER" style="text;html=1;align=center;verticalAlign=middle;resizable=0;points=[];autosize=1;strokeColor=#d79b00;fillColor=#ffe6cc;" vertex="1" parent="lhv6l2ten8mz7chehLjF-1">
          <mxGeometry x="330" y="455" width="70" height="20" as="geometry" />
        </mxCell>
        <mxCell id="_uHZms1sCD0BSmbMc2NP-8" value="" style="edgeStyle=orthogonalEdgeStyle;rounded=0;orthogonalLoop=1;jettySize=auto;html=1;strokeColor=#b85450;strokeWidth=1;entryX=0;entryY=0.5;entryDx=0;entryDy=0;fillColor=#f8cecc;endArrow=none;startArrow=none;" edge="1" parent="lhv6l2ten8mz7chehLjF-1" source="uvVpvwve04PsAVn_pGUk-7" target="_uHZms1sCD0BSmbMc2NP-4">
          <mxGeometry relative="1" as="geometry">
            <mxPoint x="680" y="465" as="targetPoint" />
            <mxPoint x="100" y="315" as="sourcePoint" />
            <Array as="points">
              <mxPoint x="110" y="465" />
            </Array>
          </mxGeometry>
        </mxCell>
        <mxCell id="_uHZms1sCD0BSmbMc2NP-10" value="ICE CANDIDATES" style="text;html=1;align=center;verticalAlign=middle;resizable=0;points=[];autosize=1;strokeColor=#b85450;fillColor=#f8cecc;" vertex="1" parent="lhv6l2ten8mz7chehLjF-1">
          <mxGeometry x="70" y="490" width="120" height="20" as="geometry" />
        </mxCell>
        <mxCell id="_uHZms1sCD0BSmbMc2NP-11" value="VC-WS offer" style="rounded=1;whiteSpace=wrap;html=1;fillColor=#f8cecc;strokeColor=#b85450;" vertex="1" parent="lhv6l2ten8mz7chehLjF-1">
          <mxGeometry x="340" y="210" width="120" height="60" as="geometry" />
        </mxCell>
        <mxCell id="_uHZms1sCD0BSmbMc2NP-12" value="ANSWER" style="text;html=1;align=center;verticalAlign=middle;resizable=0;points=[];autosize=1;strokeColor=#b85450;fillColor=#f8cecc;" vertex="1" parent="lhv6l2ten8mz7chehLjF-1">
          <mxGeometry x="330" y="455" width="70" height="20" as="geometry" />
        </mxCell>
        <mxCell id="_uHZms1sCD0BSmbMc2NP-13" value="VC-WS offer" style="rounded=1;whiteSpace=wrap;html=1;fillColor=#f8cecc;strokeColor=#b85450;" vertex="1" parent="lhv6l2ten8mz7chehLjF-1">
          <mxGeometry x="30" y="360" width="120" height="60" as="geometry" />
        </mxCell>
        <mxCell id="yWnPdLnZP3U1BHfpGMY4-0" value="Key:&lt;br&gt;Red: DynamoDB&lt;br&gt;Blue: WS Lambda&lt;br&gt;Orange: VC User&lt;br&gt;Yellow: Golang" style="text;html=1;align=center;verticalAlign=middle;resizable=0;points=[];autosize=1;strokeColor=none;fillColor=none;" vertex="1" parent="lhv6l2ten8mz7chehLjF-1">
          <mxGeometry x="335" y="20" width="110" height="80" as="geometry" />
        </mxCell>
      </root>
    </mxGraphModel>
  </diagram>
</mxfile>
